<?xml version="1.0" encoding="utf-8"?>
<!-- Generator: Adobe Illustrator 19.2.1, SVG Export Plug-In . SVG Version: 6.00 Build 0)  -->
<svg version="1.1" id="Layer_1" xmlns="http://www.w3.org/2000/svg" xmlns:xlink="http://www.w3.org/1999/xlink" x="0px" y="0px"
	 viewBox="0 0 525.7 184.4" style="enable-background:new 0 0 525.7 184.4;" xml:space="preserve">
<style type="text/css">
	.st0{fill:#DA291C;}
	.st1{fill:#F4F4F4;}
	.st2{fill:#FFFFFF;}
	.st3{fill:#010101;}
	.st4{fill:none;stroke:#DA291C;stroke-width:18;stroke-miterlimit:10;}
	.st5{fill:none;stroke:#DA291C;stroke-width:15;stroke-miterlimit:10;}
	.st6{fill:none;stroke:#DA291C;stroke-width:22.7727;stroke-miterlimit:10;}
	.st7{fill:#9D968D;}
</style>
<polygon class="st0" points="-4792,-3791.2 -4799.8,-3783.3 -4794.1,-3777.5 -4780.5,-3791.2 -4794.1,-3804.9 -4799.8,-3799 "/>
<g>
	<g>
		<g>
			<g>
				<path d="M-4996.1-3945.6l10.2,30.6l10.4-30.6h12.8l-16.2,45.1h-14.6l-16.5-45.1H-4996.1z"/>
				<path d="M-4931.9-3900.5c-0.4-2.8-0.4-4.8-0.4-6.2c-5,7.2-11,7.2-13.5,7.2c-6.5,0-9.5-1.9-11.2-3.6c-2.7-2.7-3.9-6.3-3.9-9.9
					c0-3.6,1.2-10.2,9.6-14c5.5-2.5,13.5-2.5,17.9-2.5c0-2.9-0.1-4.4-0.6-6c-1.2-3.3-4.6-3.7-5.9-3.7c-1.9,0-3.8,0.8-5,2.5
					c-1,1.5-1,2.9-1,4h-12.9c0.1-2.4,0.4-7.2,5.1-10.6c4.1-2.9,9.4-3.7,13.7-3.7c3.7,0,11.6,0.6,16.1,5.8c3,3.7,3.1,9,3.1,11.1
					l0.1,18.1c0,3.8,0.3,7.7,1.1,11.4L-4931.9-3900.5L-4931.9-3900.5z"/>
				<path d="M-4912.9-3937.5c0-0.2,0-5.1-0.3-8.2h12.7l0.4,6.8c1.2-2.1,4.8-7.9,14.6-7.9c8.8,0,12.6,5.4,13.7,8.5
					c1,2.8,1.2,5.1,1.2,13.5v24.4h-13.5v-28c0-1.9,0-3.5-0.7-4.9c-1-2-3-3.8-6.4-3.8c-2.9,0-5.4,1.3-6.9,3.5
					c-0.8,1.2-1.6,3.4-1.6,6.9v26.4h-13.3L-4912.9-3937.5L-4912.9-3937.5z"/>
			</g>
			<g>
				<path d="M-4856.1-3953.4v8.1h-8.7v8.7h8.7v24.7c0,3.7,0,12.1,13.3,12.1c2.1,0,6-0.3,10.3-1.4v-8.7c-1.6,0.2-2.5,0.3-4.5,0.3
					c-5.9,0-5.9-2.6-6-6.7v-20.4h10.7v-8.7h-10.7v-8.1L-4856.1-3953.4L-4856.1-3953.4z"/>
			</g>
			<path d="M-5029.8-3945.6h13.2v45.2h-13.2V-3945.6z"/>
		</g>
	</g>
	<path class="st0" d="M-5016.6-3970.1v13.2h-13.2v-13.2H-5016.6z"/>
	<g>
		<path d="M-4824.4-3945.6h13.2v45.2h-13.2V-3945.6z"/>
		<path class="st0" d="M-4811.2-3970.1v13.2h-13.2v-13.2H-4811.2z"/>
	</g>
</g>
<path class="st1" d="M-4933.7-3929.5c0,0-0.2,4.8-4.3,6.5c-3.2,1.3-6.8,1.5-9.2,5c-2.4,3.5-0.8,9,3.9,9.9c4.3,0.8,7.2-2,8.5-4.9
	c1.2-2.7,1.1-7.3,1.1-7.3s-0.4,1.3-1.6,1.5c-1.5,0.2-1.6-1.6,0-3.1C-4932.8-3924.3-4933.7-3929.5-4933.7-3929.5z"/>
<g>
	<g>
		<g>
			<g>
				<path d="M-4997-3775l10.5,31.5l10.7-31.5h13.1l-16.7,46.4h-15.1l-17-46.4H-4997z"/>
				<path d="M-4930.9-3728.6c-0.5-2.9-0.5-5-0.5-6.3c-5.1,7.4-11.3,7.4-13.9,7.4c-6.7,0-9.7-1.9-11.6-3.7c-2.8-2.8-4-6.5-4-10.2
					s1.3-10.5,9.8-14.4c5.7-2.6,13.9-2.6,18.4-2.6c0-3-0.1-4.5-0.6-6.2c-1.2-3.4-4.8-3.9-6.1-3.9c-1.9,0-4,0.8-5.1,2.6
					c-1,1.6-1,3-1,4.1h-13.3c0.1-2.5,0.4-7.4,5.2-10.9c4.2-3,9.7-3.8,14.1-3.8c3.9,0,12,0.6,16.5,6c3.1,3.8,3.2,9.3,3.2,11.4
					l0.1,18.7c0,4,0.3,7.9,1.1,11.8L-4930.9-3728.6L-4930.9-3728.6z M-4947.6-3742.9c0,3.1,2.1,6.6,6.6,6.6c2.5,0,4.5-1.2,5.8-2.7
					c2.4-2.9,2.6-6.5,2.6-11.5C-4941.4-3751.2-4947.6-3748.4-4947.6-3742.9z"/>
				<path d="M-4911.3-3766.7c0-0.2,0-5.2-0.3-8.5h13.1l0.4,7c1.3-2.1,5-8.1,15.1-8.1c9.1,0,13,5.5,14.2,8.7c1,2.9,1.3,5.2,1.3,13.9
					v25.1h-13.9v-28.9c0-1.9,0-3.6-0.7-5.1c-1-2-3.1-4-6.6-4c-2.9,0-5.6,1.4-7.1,3.6c-0.8,1.2-1.7,3.5-1.7,7.1v27.2h-13.7
					L-4911.3-3766.7L-4911.3-3766.7z"/>
			</g>
			<g>
				<path d="M-4852.8-3784.1v9.4h-8.9v9h8.9v25.5c0,3.9,0,12.5,13.7,12.5c2.2,0,6.2-0.3,10.6-1.5v-8.9c-1.7,0.2-2.6,0.3-4.6,0.3
					c-6.1,0-6.1-2.7-6.2-6.9v-21h11v-9h-11v-9.5L-4852.8-3784.1z"/>
			</g>
			<path d="M-5031.7-3775.1h13.6v46.5h-13.6V-3775.1z"/>
		</g>
	</g>
	<path class="st0" d="M-5018.1-3800.3v13.6h-13.6v-13.6H-5018.1z"/>
	<g>
		<path d="M-4820.1-3775.1h13.6v46.5h-13.6V-3775.1z"/>
		<path class="st0" d="M-4806.5-3798.3v13.6h-13.6v-13.6H-4806.5z"/>
	</g>
</g>
<g>
	<g>
		<g>
			<g>
				<path d="M-4994.8-3589.8l10,30.2l10.2-30.2h12.6l-16,44.4h-14.4l-16.3-44.4H-4994.8z"/>
				<path d="M-4931.6-3545.4c-0.4-2.7-0.4-4.7-0.4-6.1c-4.9,7.1-10.8,7.1-13.3,7.1c-6.4,0-9.3-1.8-11.1-3.5
					c-2.6-2.6-3.9-6.2-3.9-9.8c0-3.5,1.2-10,9.4-13.8c5.5-2.5,13.3-2.5,17.6-2.5c0-2.9-0.1-4.3-0.6-5.9c-1.1-3.3-4.6-3.7-5.8-3.7
					c-1.8,0-3.8,0.8-4.9,2.5c-1,1.5-1,2.9-1,4h-12.7c0.1-2.4,0.4-7.1,5-10.5c4-2.9,9.2-3.6,13.5-3.6c3.7,0,11.4,0.6,15.8,5.7
					c3,3.6,3.1,8.9,3.1,10.9l0.1,17.8c0,3.8,0.3,7.6,1.1,11.3h-11.9V-3545.4z M-4947.6-3559.1c0,3,2,6.3,6.3,6.3
					c2.4,0,4.3-1.1,5.5-2.6c2.3-2.8,2.5-6.2,2.5-11C-4941.6-3567-4947.6-3564.4-4947.6-3559.1z"/>
				<path d="M-4912.9-3581.9c0-0.2,0-5-0.3-8.1h12.5l0.4,6.7c1.2-2,4.7-7.7,14.4-7.7c8.7,0,12.4,5.3,13.5,8.4c1,2.7,1.2,5,1.2,13.3
					v24h-13.3v-27.6c0-1.8,0-3.4-0.7-4.8c-1-1.9-3-3.8-6.3-3.8c-2.8,0-5.4,1.3-6.8,3.4c-0.8,1.1-1.6,3.3-1.6,6.8v26h-13.1
					L-4912.9-3581.9L-4912.9-3581.9z"/>
			</g>
			<g>
				<path d="M-4856.9-3601v11.5h-8.5v8.6h8.5v24.4c0,3.7,0,12,13.1,12c2.1,0,5.9-0.3,10.1-1.4v-8.5c-1.6,0.2-2.5,0.3-4.4,0.3
					c-5.8,0-5.8-2.5-5.9-6.6v-20h10.6v-8.6h-10.6v-11.5h-12.9V-3601z"/>
			</g>
			<path d="M-5028-3589.9h13v44.5h-13V-3589.9z"/>
		</g>
	</g>
	<path class="st0" d="M-5015-3614v13h-13v-13H-5015z"/>
	<g>
		<path d="M-4825.6-3589.9h13v44.5h-13V-3589.9z"/>
	</g>
</g>
<path class="st0" d="M-4812.6-3621.9v20.9h-20.9v-20.9H-4812.6z"/>
<polygon class="st2" points="-4823.1,-3611 -4827.4,-3606.8 -4824.2,-3603.6 -4816.9,-3611.1 -4824.2,-3618.5 -4827.4,-3615.3 "/>
<g>
	<g>
		<g>
			<g>
				<path d="M-4637.1-3945.2l10.5,31.7l10.7-31.7h13.2l-16.8,46.6h-15.1l-17.1-46.6H-4637.1z"/>
				<path d="M-4570.7-3898.6c-0.5-2.9-0.5-5-0.5-6.4c-5.2,7.5-11.4,7.5-13.9,7.5c-6.7,0-9.8-1.9-11.6-3.7c-2.8-2.8-4.1-6.6-4.1-10.2
					c0-3.7,1.3-10.5,9.9-14.5c5.7-2.6,13.9-2.6,18.5-2.6c0-3-0.1-4.5-0.6-6.2c-1.2-3.4-4.8-3.9-6.1-3.9c-1.9,0-4,0.8-5.2,2.6
					c-1,1.6-1,3-1,4.2h-13.4c0.1-2.5,0.4-7.5,5.3-11c4.2-3,9.7-3.8,14.1-3.8c3.9,0,12,0.6,16.6,6c3.1,3.8,3.2,9.3,3.2,11.4l0.1,18.7
					c0,4,0.3,7.9,1.1,11.8L-4570.7-3898.6L-4570.7-3898.6z M-4587.5-3913c0,3.1,2.1,6.6,6.6,6.6c2.5,0,4.5-1.2,5.8-2.7
					c2.4-3,2.6-6.6,2.6-11.5C-4581.2-3921.3-4587.5-3918.5-4587.5-3913z"/>
				<path d="M-4551.1-3936.9c0-0.2,0-5.3-0.3-8.5h13.1l0.4,7c1.3-2.1,5-8.1,15.1-8.1c9.1,0,13,5.5,14.2,8.8c1,2.9,1.3,5.3,1.3,13.9
					v25.2h-13.9v-29c0-1.9,0-3.6-0.7-5.1c-1-2-3.1-4-6.6-4c-3,0-5.6,1.4-7.1,3.6c-0.8,1.2-1.7,3.5-1.7,7.1v27.3h-13.8V-3936.9z"/>
			</g>
			<g>
				<path d="M-4492.4-3957v12.1h-9v9h9v25.6c0,3.9,0,12.6,13.8,12.6c2.2,0,6.2-0.3,10.6-1.5v-9c-1.7,0.2-2.6,0.3-4.6,0.3
					c-6.1,0-6.1-2.7-6.2-6.9v-21h11.1v-9h-11.1v-12.1h-13.6V-3957z"/>
			</g>
			<path d="M-4671.9-3945.3h13.7v46.7h-13.7V-3945.3z"/>
		</g>
	</g>
	<path class="st0" d="M-4658.2-3970.6v13.7h-13.7v-13.7H-4658.2z"/>
	<g>
		<path d="M-4459.5-3945.3h13.7v46.7h-13.7V-3945.3z"/>
	</g>
</g>
<polygon class="st0" points="-4453.6,-3966.1 -4453.6,-3955.6 -4445.8,-3955.6 -4445.8,-3973.9 -4464.1,-3973.9 -4464.1,-3966.1 "/>
<g>
	<g>
		<g>
			<g>
				<g>
					<path d="M-4580.6-3630.7l8.6,26l8.8-26h10.8l-13.8,38.2h-12.4l-14-38.2H-4580.6z"/>
					<path d="M-4526.2-3592.4c-0.4-2.3-0.4-4.1-0.4-5.2c-4.2,6.1-9.3,6.1-11.4,6.1c-5.5,0-8-1.6-9.5-3c-2.3-2.3-3.3-5.4-3.3-8.4
						s1.1-8.6,8.1-11.9c4.7-2.1,11.4-2.1,15.1-2.1c0-2.5-0.1-3.7-0.5-5.1c-1-2.8-3.9-3.2-5-3.2c-1.6,0-3.3,0.7-4.2,2.1
						c-0.8,1.3-0.8,2.5-0.8,3.4h-11c0.1-2,0.3-6.1,4.3-9c3.5-2.5,7.9-3.1,11.6-3.1c3.2,0,9.8,0.5,13.6,4.9c2.6,3.1,2.6,7.6,2.6,9.4
						l0.1,15.4c0,3.3,0.2,6.5,0.9,9.7L-4526.2-3592.4L-4526.2-3592.4z M-4540-3604.2c0,2.6,1.7,5.4,5.4,5.4c2,0,3.7-1,4.8-2.2
						c2-2.4,2.1-5.4,2.1-9.5C-4534.8-3611.1-4540-3608.8-4540-3604.2z"/>
					<path d="M-4510.1-3623.9c0-0.2,0-4.3-0.2-7h10.7l0.3,5.8c1.1-1.7,4.1-6.7,12.4-6.7c7.5,0,10.7,4.5,11.7,7.2
						c0.8,2.3,1.1,4.3,1.1,11.4v20.7h-11.4v-23.8c0-1.6,0-3-0.6-4.2c-0.8-1.7-2.6-3.3-5.4-3.3c-2.4,0-4.6,1.1-5.8,3
						c-0.7,1-1.4,2.9-1.4,5.8v22.4h-11.3v-31.3H-4510.1z"/>
				</g>
				<g>
					<path d="M-4462-3637.3v6.9h-7.3v7.4h7.3v21c0,3.2,0,10.3,11.3,10.3c1.8,0,5.1-0.2,8.7-1.2v-7.3c-1.4,0.2-2.1,0.2-3.8,0.2
						c-5,0-5-2.2-5.1-5.7v-17.3h9.1v-7.4h-9.1v-6.9H-4462z"/>
				</g>
				<path d="M-4609.2-3630.7h11.2v38.3h-11.2V-3630.7z"/>
			</g>
		</g>
		<path class="st0" d="M-4598-3651.5v11.2h-11.2v-11.2H-4598z"/>
		<g>
			<path d="M-4435-3630.7h11.2v38.3h-11.2V-3630.7z"/>
			<path class="st0" d="M-4423.8-3651.5v11.2h-11.2v-11.2H-4423.8z"/>
		</g>
	</g>
	<g>
		<g>
			<polygon class="st0" points="-4658.9,-3651.2 -4658.9,-3621.9 -4629.2,-3651.2 			"/>
		</g>
		<g>
			<polygon class="st3" points="-4658.9,-3592.9 -4658.9,-3622.2 -4688.5,-3592.9 			"/>
		</g>
	</g>
</g>
<g>
	<g>
		<g>
			<g>
				<path d="M-4580.6-3513.1l8.6,26l8.8-26h10.8l-13.8,38.2h-12.4l-14-38.2H-4580.6z"/>
				<path d="M-4526.2-3474.9c-0.4-2.3-0.4-4.1-0.4-5.2c-4.2,6.1-9.3,6.1-11.4,6.1c-5.5,0-8-1.6-9.5-3c-2.3-2.3-3.3-5.4-3.3-8.4
					s1.1-8.6,8.1-11.9c4.7-2.1,11.4-2.1,15.1-2.1c0-2.5-0.1-3.7-0.5-5.1c-1-2.8-3.9-3.2-5-3.2c-1.6,0-3.3,0.7-4.2,2.1
					c-0.8,1.3-0.8,2.5-0.8,3.4h-11c0.1-2,0.3-6.1,4.3-9c3.5-2.5,7.9-3.1,11.6-3.1c3.2,0,9.8,0.5,13.6,4.9c2.6,3.1,2.6,7.6,2.6,9.4
					l0.1,15.4c0,3.3,0.2,6.5,0.9,9.7L-4526.2-3474.9L-4526.2-3474.9z M-4540-3486.7c0,2.6,1.7,5.4,5.4,5.4c2,0,3.7-1,4.8-2.2
					c2-2.4,2.1-5.4,2.1-9.5C-4534.8-3493.5-4540-3491.3-4540-3486.7z"/>
				<path d="M-4510.1-3506.3c0-0.2,0-4.3-0.2-7h10.7l0.3,5.8c1.1-1.7,4.1-6.7,12.4-6.7c7.5,0,10.7,4.5,11.7,7.2
					c0.8,2.3,1.1,4.3,1.1,11.4v20.7h-11.4v-23.8c0-1.6,0-3-0.6-4.2c-0.8-1.7-2.6-3.3-5.4-3.3c-2.4,0-4.6,1.1-5.8,3
					c-0.7,1-1.4,2.9-1.4,5.8v22.4h-11.3v-31.3H-4510.1z"/>
			</g>
			<path d="M-4462-3519.8v6.9h-7.3v7.4h7.3v21c0,3.2,0,10.3,11.3,10.3c1.8,0,5.1-0.2,8.7-1.2v-7.3c-1.4,0.2-2.1,0.2-3.8,0.2
				c-5,0-5-2.2-5.1-5.7v-17.3h9.1v-7.4h-9.1v-6.9H-4462z"/>
			<path d="M-4609.2-3513.2h11.2v38.3h-11.2V-3513.2z"/>
		</g>
	</g>
	<path d="M-4435-3513.2h11.2v38.3h-11.2V-3513.2z"/>
</g>
<g>
	<g>
		<polygon class="st0" points="-4433.7,-3529.2 -4424.5,-3520.2 -4424.5,-3538.6 		"/>
	</g>
</g>
<g>
	<g>
		<polygon points="-4598.8,-3529.3 -4607.9,-3520.2 -4608,-3538.6 		"/>
	</g>
</g>
<g>
	<g>
		<g>
			<g>
				<g>
					<path d="M-4631.9-3783.4l9.8,32.2l10-32.2h12.3l-15.7,47.4h-14.2l-16-47.4H-4631.9z"/>
					<path d="M-4569.9-3735.9c-0.4-2.9-0.4-5.1-0.4-6.5c-4.8,7.6-10.6,7.6-13,7.6c-6.3,0-9.1-2-10.9-3.8c-2.6-2.8-3.8-6.7-3.8-10.4
						c0-3.8,1.2-10.7,9.2-14.7c5.4-2.6,13-2.6,17.3-2.6c0-3.1-0.1-4.6-0.6-6.3c-1.1-3.5-4.5-3.9-5.7-3.9c-1.8,0-3.7,0.8-4.8,2.6
						c-0.9,1.6-0.9,3.1-0.9,4.2h-12.5c0.1-2.5,0.3-7.6,4.9-11.2c4-3.1,9.1-3.9,13.2-3.9c3.6,0,11.2,0.7,15.5,6.1
						c2.9,3.9,3,9.5,3,11.6l0.1,19.1c0,4,0.3,8.1,1,12L-4569.9-3735.9L-4569.9-3735.9z M-4585.6-3750.6c0,3.2,2,6.8,6.2,6.8
						c2.3,0,4.2-1.2,5.4-2.7c2.2-3,2.4-6.7,2.4-11.7C-4579.7-3759.1-4585.6-3756.2-4585.6-3750.6z"/>
					<path d="M-4551.5-3774.9c0-0.2,0-5.4-0.3-8.6h12.3l0.3,7.1c1.2-2.2,4.7-8.3,14.2-8.3c8.5,0,12.2,5.6,13.3,8.9
						c0.9,2.9,1.2,5.4,1.2,14.2v25.6h-13v-29.5c0-2,0-3.7-0.7-5.2c-0.9-2.1-2.9-4-6.2-4c-2.8,0-5.3,1.4-6.6,3.7
						c-0.8,1.2-1.6,3.6-1.6,7.2v27.8h-12.9L-4551.5-3774.9L-4551.5-3774.9z"/>
				</g>
				<g>
					<path d="M-4496.6-3791.7v8.6h-8.4v9.2h8.4v26c0,3.9,0,12.8,12.9,12.8c2.1,0,5.8-0.3,9.9-1.5v-9.1c-1.6,0.2-2.4,0.3-4.3,0.3
						c-5.7,0-5.7-2.7-5.8-7v-21.4h10.4v-9.2h-10.4v-8.6h-12.7V-3791.7z"/>
				</g>
				<path d="M-4664.5-3783.5h12.8v47.5h-12.8V-3783.5z"/>
			</g>
		</g>
		<path class="st0" d="M-4651.7-3809.2v13.9h-12.8v-13.9H-4651.7z"/>
		<g>
			<path d="M-4465.9-3783.5h12.8v47.5h-12.8V-3783.5z"/>
			<path class="st0" d="M-4453.2-3809.2v13.9h-12.8v-13.9H-4453.2z"/>
		</g>
	</g>
</g>
<g>
	<g>
		<g>
			<g>
				<path d="M-4014.5-3578.2l26.4,79.4l26.8-79.4h33.1l-42.1,116.8h-37.9l-42.8-116.8H-4014.5z"/>
				<path d="M-3848.2-3461.4c-1.2-7.2-1.2-12.5-1.2-16c-13,18.7-28.5,18.7-34.9,18.7c-16.9,0-24.5-4.9-29.1-9.3
					c-6.9-6.9-10.2-16.4-10.2-25.7s3.2-26.4,24.8-36.3c14.3-6.5,34.9-6.5,46.3-6.5c0-7.6-0.2-11.3-1.6-15.5c-3-8.6-12-9.7-15.3-9.7
					c-4.9,0-9.9,2.1-13,6.5c-2.5,3.9-2.5,7.6-2.5,10.4h-33.5c0.2-6.2,0.9-18.7,13.2-27.5c10.6-7.6,24.3-9.5,35.4-9.5
					c9.7,0,30.1,1.6,41.6,15c7.9,9.5,8.1,23.4,8.1,28.7l0.2,47c0,9.9,0.7,19.9,2.8,29.6h-31.1V-3461.4z M-3890.3-3497.5
					c0,7.9,5.3,16.7,16.7,16.7c6.2,0,11.3-3,14.6-6.7c6-7.4,6.5-16.4,6.5-28.9C-3874.5-3518.3-3890.3-3511.4-3890.3-3497.5z"/>
				<path d="M-3799-3557.4c0-0.5,0-13.2-0.7-21.3h32.9l0.9,17.6c3.2-5.3,12.5-20.4,37.9-20.4c22.9,0,32.6,13.9,35.6,22
					c2.5,7.2,3.2,13.2,3.2,34.9v63.2h-34.9v-72.6c0-4.9,0-9-1.9-12.7c-2.5-5.1-7.9-9.9-16.7-9.9c-7.4,0-14.1,3.5-17.8,9
					c-2.1,3-4.2,8.8-4.2,17.8v68.5h-34.5v-96.1H-3799z"/>
			</g>
			<path d="M-3651.7-3598.6v21.1h-22.4v22.7h22.4v64.1c0,9.7,0,31.5,34.5,31.5c5.6,0,15.5-0.7,26.6-3.7v-22.4
				c-4.2,0.5-6.5,0.7-11.6,0.7c-15.3,0-15.3-6.7-15.5-17.3v-52.7h27.8v-22.7h-27.8v-36.1L-3651.7-3598.6z"/>
			<path d="M-4101.8-3578.5h34.2v117.1h-34.2V-3578.5z"/>
		</g>
	</g>
	<path d="M-3569.4-3578.5h34.2v117.1h-34.2V-3578.5z"/>
</g>
<g>
	<g>
		<polygon class="st0" points="-3565.3,-3627.4 -3537.1,-3599.8 -3537.4,-3656 		"/>
	</g>
</g>
<g>
	<g>
		<polygon points="-4070.1,-3627.7 -4098,-3599.8 -4098.3,-3656 		"/>
	</g>
</g>
<g>
	<g>
		<g>
			<g>
				<path d="M-3069.4-3578.2l26.4,79.4l26.8-79.4h33.1l-42.1,116.8h-37.9l-42.8-116.8H-3069.4z"/>
				<path d="M-2903.1-3461.4c-1.2-7.2-1.2-12.5-1.2-16c-13,18.7-28.5,18.7-34.9,18.7c-16.9,0-24.5-4.9-29.1-9.3
					c-6.9-6.9-10.2-16.4-10.2-25.7s3.2-26.4,24.8-36.3c14.3-6.5,34.9-6.5,46.3-6.5c0-7.6-0.2-11.3-1.6-15.5c-3-8.6-12-9.7-15.3-9.7
					c-4.9,0-9.9,2.1-13,6.5c-2.5,3.9-2.5,7.6-2.5,10.4h-33.5c0.2-6.2,0.9-18.7,13.2-27.5c10.6-7.6,24.3-9.5,35.4-9.5
					c9.7,0,30.1,1.6,41.6,15c7.9,9.5,8.1,23.4,8.1,28.7l0.2,47c0,9.9,0.7,19.9,2.8,29.6h-31.1V-3461.4z M-2945.2-3497.5
					c0,7.9,5.3,16.7,16.7,16.7c6.2,0,11.3-3,14.6-6.7c6-7.4,6.5-16.4,6.5-28.9C-2929.4-3518.3-2945.2-3511.4-2945.2-3497.5z"/>
				<path d="M-2853.9-3557.4c0-0.5,0-13.2-0.7-21.3h32.9l0.9,17.6c3.2-5.3,12.5-20.4,37.9-20.4c22.9,0,32.6,13.9,35.6,22
					c2.5,7.2,3.2,13.2,3.2,34.9v63.2h-34.9v-72.6c0-4.9,0-9-1.9-12.7c-2.5-5.1-7.9-9.9-16.7-9.9c-7.4,0-14.1,3.5-17.8,9
					c-2.1,3-4.2,8.8-4.2,17.8v68.5h-34.5v-96.1H-2853.9z"/>
			</g>
			<path d="M-2706.6-3598.6v21.1h-22.4v22.7h22.4v64.1c0,9.7,0,31.5,34.5,31.5c5.6,0,15.5-0.7,26.6-3.7v-22.4
				c-4.2,0.5-6.5,0.7-11.6,0.7c-15.3,0-15.3-6.7-15.5-17.3v-52.7h27.8v-22.7h-27.8v-36.1L-2706.6-3598.6z"/>
			<path d="M-3156.7-3578.5h34.2v117.1h-34.2V-3578.5z"/>
		</g>
	</g>
	<path d="M-2624.3-3578.5h34.2v117.1h-34.2V-3578.5z"/>
</g>
<g>
	<g>
		<g>
			<g>
				<path d="M-3069.4-2739.8l26.4,79.4l26.8-79.4h33.1l-42.1,116.9h-37.9l-42.8-116.8L-3069.4-2739.8L-3069.4-2739.8z"/>
				<path d="M-2903.1-2622.9c-1.2-7.2-1.2-12.5-1.2-16c-13,18.7-28.5,18.7-34.9,18.7c-16.9,0-24.5-4.9-29.1-9.3
					c-6.9-6.9-10.2-16.4-10.2-25.7s3.2-26.4,24.8-36.3c14.3-6.5,34.9-6.5,46.3-6.5c0-7.6-0.2-11.3-1.6-15.5c-3-8.6-12-9.7-15.3-9.7
					c-4.9,0-9.9,2.1-13,6.5c-2.5,3.9-2.5,7.6-2.5,10.4h-33.5c0.2-6.2,0.9-18.7,13.2-27.5c10.6-7.6,24.3-9.5,35.4-9.5
					c9.7,0,30.1,1.6,41.6,15c7.9,9.5,8.1,23.4,8.1,28.7l0.2,47c0,9.9,0.7,19.9,2.8,29.6h-31.1V-2622.9z M-2945.2-2659
					c0,7.9,5.3,16.7,16.7,16.7c6.2,0,11.3-3,14.6-6.7c6-7.4,6.5-16.4,6.5-28.9C-2929.4-2679.9-2945.2-2672.9-2945.2-2659z"/>
				<path d="M-2853.9-2719c0-0.5,0-13.2-0.7-21.3h32.9l0.9,17.6c3.2-5.3,12.5-20.4,37.9-20.4c22.9,0,32.6,13.9,35.6,22
					c2.5,7.2,3.2,13.2,3.2,34.9v63.2h-34.9v-72.6c0-4.9,0-9-1.9-12.7c-2.5-5.1-7.9-9.9-16.7-9.9c-7.4,0-14.1,3.5-17.8,9
					c-2.1,3-4.2,8.8-4.2,17.8v68.5h-34.5v-96.1H-2853.9z"/>
			</g>
			<path d="M-2706.6-2760.2v21.1h-22.4v22.7h22.4v64.1c0,9.7,0,31.5,34.5,31.5c5.6,0,15.5-0.7,26.6-3.7v-22.4
				c-4.2,0.5-6.5,0.7-11.6,0.7c-15.3,0-15.3-6.7-15.5-17.3v-52.7h27.8v-22.7h-27.8v-20.8L-2706.6-2760.2z"/>
			<path d="M-3156.7-2740h34.2v117.1h-34.2V-2740z"/>
		</g>
	</g>
	<path d="M-2624.3-2740.9l34.2,0.9v117.1h-34.2V-2740.9z"/>
</g>
<g>
	<g>
		<polygon points="-3120.9,-2795.8 -3156.4,-2830.6 -3156.1,-2759.8 		"/>
	</g>
</g>
<g>
	<g>
		<polygon class="st0" points="-2589.4,-2795.8 -2625,-2830.6 -2624.7,-2759.8 		"/>
	</g>
</g>
<g>
	<g>
		<g>
			<g>
				<path d="M-3976.7-2750.5l23.1,69.6l23.5-69.6h29L-3938-2648h-33.3l-37.5-102.5H-3976.7z"/>
				<path d="M-3830.8-2648c-1-6.3-1-11-1-14c-11.4,16.4-25,16.4-30.6,16.4c-14.8,0-21.5-4.3-25.6-8.1c-6.1-6.1-8.9-14.4-8.9-22.5
					s2.8-23.1,21.7-31.9c12.6-5.7,30.6-5.7,40.6-5.7c0-6.7-0.2-9.9-1.4-13.6c-2.6-7.5-10.6-8.5-13.4-8.5c-4.3,0-8.7,1.8-11.4,5.7
					c-2.2,3.5-2.2,6.7-2.2,9.1h-29.4c0.2-5.5,0.8-16.4,11.6-24.2c9.3-6.7,21.3-8.3,31.1-8.3c8.5,0,26.4,1.4,36.5,13.2
					c6.9,8.3,7.1,20.5,7.1,25.2l0.2,41.2c0,8.7,0.6,17.5,2.4,26L-3830.8-2648L-3830.8-2648z M-3867.7-2679.7
					c0,6.9,4.7,14.6,14.6,14.6c5.5,0,9.9-2.6,12.8-5.9c5.3-6.5,5.7-14.4,5.7-25.4C-3853.9-2697.9-3867.7-2691.8-3867.7-2679.7z"/>
				<path d="M-3787.6-2732.2c0-0.4,0-11.6-0.6-18.7h28.8l0.8,15.4c2.8-4.7,11-17.9,33.3-17.9c20.1,0,28.6,12.2,31.3,19.3
					c2.2,6.3,2.8,11.6,2.8,30.6v55.4h-30.6v-63.7c0-4.3,0-7.9-1.6-11.2c-2.2-4.5-6.9-8.7-14.6-8.7c-6.5,0-12.4,3-15.6,7.9
					c-1.8,2.6-3.7,7.7-3.7,15.6v60.1h-30.2L-3787.6-2732.2L-3787.6-2732.2z"/>
			</g>
			<g>
				<path d="M-3658.4-2768.4v18.5h-19.7v19.9h19.7v56.2c0,8.5,0,27.6,30.2,27.6c4.9,0,13.6-0.6,23.3-3.2v-19.7
					c-3.7,0.4-5.7,0.6-10.1,0.6c-13.4,0-13.4-5.9-13.6-15.2v-46.3h24.4v-19.9h-24.4v-31.4L-3658.4-2768.4z"/>
			</g>
			<path d="M-4053.3-2750.7h30v102.7h-30V-2750.7z"/>
		</g>
	</g>
	<path class="st0" d="M-4016.3-2809.4l-36,36v-36H-4016.3z"/>
	<g>
		<path d="M-3586.2-2750.7h30v102.7h-30V-2750.7z"/>
		<path class="st0" d="M-3555.8-2809.4v36l-36-36H-3555.8z"/>
	</g>
</g>
<path d="M-2753.6-3790.4"/>
<polyline class="st4" points="-2655,-3589.9 -2655,-3642.5 -2703.1,-3621.3 "/>
<g>
	<g>
		<g>
			<path d="M-2154.1-3578.2l26.4,79.4l26.8-79.4h33.1l-42.1,116.8h-37.9l-42.8-116.8H-2154.1z"/>
			<path d="M-1987.8-3461.4c-1.2-7.2-1.2-12.5-1.2-16c-13,18.7-28.5,18.7-34.9,18.7c-16.9,0-24.5-4.9-29.1-9.3
				c-6.9-6.9-10.2-16.4-10.2-25.7s3.2-26.4,24.8-36.3c14.3-6.5,34.9-6.5,46.3-6.5c0-7.6-0.2-11.3-1.6-15.5c-3-8.6-12-9.7-15.3-9.7
				c-4.9,0-9.9,2.1-13,6.5c-2.5,3.9-2.5,7.6-2.5,10.4h-33.5c0.2-6.2,0.9-18.7,13.2-27.5c10.6-7.6,24.3-9.5,35.4-9.5
				c9.7,0,30.1,1.6,41.6,15c7.9,9.5,8.1,23.4,8.1,28.7l0.2,47c0,9.9,0.7,19.9,2.8,29.6h-31.1V-3461.4z M-2029.9-3497.5
				c0,7.9,5.3,16.7,16.7,16.7c6.2,0,11.3-3,14.6-6.7c6-7.4,6.5-16.4,6.5-28.9C-2014.1-3518.3-2029.9-3511.4-2029.9-3497.5z"/>
			<path d="M-1938.6-3557.4c0-0.5,0-13.2-0.7-21.3h32.9l0.9,17.6c3.2-5.3,12.5-20.4,37.9-20.4c22.9,0,32.6,13.9,35.6,22
				c2.5,7.2,3.2,13.2,3.2,34.9v63.2h-34.9v-72.6c0-4.9,0-9-1.9-12.7c-2.5-5.1-7.9-9.9-16.7-9.9c-7.4,0-14.1,3.5-17.8,9
				c-2.1,3-4.2,8.8-4.2,17.8v68.5h-34.5v-96.1H-1938.6z"/>
		</g>
		<path d="M-1790.9-3590.7l-0.2,12l-22.4-0.2l-0.2,22.7l22.4,0.2l-0.5,64.9c-0.1,9.7-0.3,31.5,34.2,31.7c5.6,0,15.5-0.6,26.6-3.5
			l0.2-22.4c-4.2,0.4-6.5,0.6-11.6,0.6c-15.3-0.1-15.2-6.8-15.4-17.5l0.4-53.6l27.8,0.2l0.2-22.7l-27.8-0.2l0.3-27L-1790.9-3590.7z"
			/>
		<path d="M-2241.4-3578.5h34.2v117.1h-34.2V-3578.5z"/>
	</g>
</g>
<path d="M-1708.8-3578.2l34.2,0.3l-0.9,117.1l-34.2-0.3L-1708.8-3578.2z"/>
<path d="M-1838.2-3790.4"/>
<polyline class="st5" points="-1736.5,-3594.3 -1736.2,-3638.7 -1776.9,-3621.2 "/>
<g>
	<g>
		<g>
			<path d="M-2154.1-2801.2l26.4,79.4l26.8-79.4h33.1l-42.1,116.8h-37.9l-42.8-116.8H-2154.1z"/>
			<path d="M-1987.8-2684.4c-1.2-7.2-1.2-12.5-1.2-16c-13,18.7-28.5,18.7-34.9,18.7c-16.9,0-24.5-4.9-29.1-9.3
				c-6.9-6.9-10.2-16.4-10.2-25.7s3.2-26.4,24.8-36.3c14.3-6.5,34.9-6.5,46.3-6.5c0-7.6-0.2-11.3-1.6-15.5c-3-8.6-12-9.7-15.3-9.7
				c-4.9,0-9.9,2.1-13,6.5c-2.5,3.9-2.5,7.6-2.5,10.4h-33.5c0.2-6.2,0.9-18.7,13.2-27.5c10.6-7.6,24.3-9.5,35.4-9.5
				c9.7,0,30.1,1.6,41.6,15c7.9,9.5,8.1,23.4,8.1,28.7l0.2,47c0,9.9,0.7,19.9,2.8,29.6h-31.1V-2684.4z M-2029.9-2720.5
				c0,7.9,5.3,16.7,16.7,16.7c6.2,0,11.3-3,14.6-6.7c6-7.4,6.5-16.4,6.5-28.9C-2014.1-2741.3-2029.9-2734.4-2029.9-2720.5z"/>
			<path d="M-1938.6-2780.4c0-0.5,0-13.2-0.7-21.3h32.9l0.9,17.6c3.2-5.3,12.5-20.4,37.9-20.4c22.9,0,32.6,13.9,35.6,22
				c2.5,7.2,3.2,13.2,3.2,34.9v63.2h-34.9v-72.6c0-4.9,0-9-1.9-12.7c-2.5-5.1-7.9-9.9-16.7-9.9c-7.4,0-14.1,3.5-17.8,9
				c-2.1,3-4.2,8.8-4.2,17.8v68.5h-34.5v-96.1H-1938.6z"/>
		</g>
		<path d="M-2241.4-2801.5h34.2v117.1h-34.2V-2801.5z"/>
	</g>
</g>
<path d="M-1715-2801.2l34.2,0.3l-0.9,117.1l-34.2-0.3L-1715-2801.2z"/>
<path d="M-1838.2-3013.4"/>
<polyline class="st6" points="-1746,-2819.3 -1745.6,-2868 -1795,-2855.5 "/>
<g>
	<path d="M-1742.4-2707.8c-15.3-0.1-15.2-6.8-15.4-17.5l0.4-53.6l22.5,0.2l0.2-22.7l-22.5-0.2l-34-0.3l-22.4-0.2l-0.2,22.7l22.4,0.2
		l-0.5,64.9c-0.1,9.7-0.3,31.5,34.2,31.7c4.9,0,13.3-0.4,22.8-2.6v-23C-1737-2707.8-1739.1-2707.7-1742.4-2707.8z"/>
</g>
<path d="M-1682.1-2852.9v32.5h-32.5v-32.5H-1682.1z"/>
<path d="M-2207.8-2852.9v32.5h-32.5v-32.5H-2207.8z"/>
<path d="M-1838.2-2249.4"/>
<polyline class="st6" points="10.9,-2587.5 11.3,-2636.2 -38,-2623.8 "/>
<g>
	<g>
		<g>
			<path d="M-413.4-2573l26.4,79.4l26.8-79.4h33.1l-42.1,116.8h-38L-450-2573H-413.4z"/>
			<path d="M-247.1-2456.2c-1.2-7.2-1.2-12.5-1.2-16c-13,18.7-28.5,18.7-34.9,18.7c-16.9,0-24.5-4.9-29.1-9.3
				c-6.9-6.9-10.2-16.4-10.2-25.7s3.2-26.4,24.8-36.3c14.3-6.5,34.9-6.5,46.3-6.5c0-7.6-0.2-11.3-1.6-15.5c-3-8.6-12-9.7-15.3-9.7
				c-4.9,0-9.9,2.1-13,6.5c-2.5,3.9-2.5,7.6-2.5,10.4h-33.5c0.2-6.2,0.9-18.7,13.2-27.5c10.6-7.6,24.3-9.5,35.4-9.5
				c9.7,0,30.1,1.6,41.6,15c7.9,9.5,8.1,23.4,8.1,28.7l0.2,47c0,9.9,0.7,19.9,2.8,29.6h-31.1V-2456.2z M-289.2-2492.3
				c0,7.9,5.3,16.7,16.7,16.7c6.2,0,11.3-3,14.6-6.7c6-7.4,6.5-16.4,6.5-28.9C-273.4-2513.1-289.2-2506.2-289.2-2492.3z"/>
			<path d="M-197.9-2552.2c0-0.5,0-13.2-0.7-21.3h32.9l0.9,17.6c3.2-5.3,12.5-20.4,37.9-20.4c22.9,0,32.6,13.9,35.6,22
				c2.5,7.2,3.2,13.2,3.2,34.9v63.2h-34.8v-72.6c0-4.9,0-9-1.9-12.7c-2.5-5.1-7.9-9.9-16.7-9.9c-7.4,0-14.1,3.5-17.8,9
				c-2.1,3-4.2,8.8-4.2,17.8v68.5H-198v-96.1H-197.9z"/>
		</g>
		<path d="M-50.3-2592l-0.2,18.5l-22.4-0.2l-0.2,22.7l22.4,0.2l-0.5,64.9c-0.1,9.7-0.3,31.5,34.2,31.7c5.6,0,15.5-0.6,26.6-3.5
			l0.2-22.4c-4.2,0.4-6.5,0.6-11.6,0.6c-15.3-0.1-15.2-6.8-15.4-17.5l0.4-53.6l27.8,0.2l0.2-22.7l-28-0.2v-27.2L-50.3-2592z"/>
		<path d="M-500.7-2573.3h34.2v117.1h-34.2V-2573.3z"/>
	</g>
</g>
<path d="M31.9-2573l34.2,0.3l-0.9,117.1l-34.2-0.3L31.9-2573z"/>
<g>
	<g>
		<g>
			<g>
				<g>
					<path class="st7" d="M78.1,77.8l23.5,70.7l23.9-70.7H155L117.5,182H83.7L45.5,77.8H78.1z"/>
				</g>
				<g>
					<path class="st7" d="M226.4,181.9c-1-6.4-1-11.1-1-14.2c-11.5,16.7-25.4,16.7-31.1,16.7c-15.1,0-21.9-4.3-26-8.2
						c-6.2-6.2-9.1-14.6-9.1-22.9c0-8.2,2.9-23.5,22.1-32.4c12.8-5.8,31.1-5.8,41.2-5.8c0-6.8-0.2-10.1-1.4-13.8
						c-2.7-7.6-10.7-8.7-13.6-8.7c-4.3,0-8.9,1.9-11.5,5.8c-2.3,3.5-2.3,6.8-2.3,9.3h-29.9c0.2-5.6,0.8-16.7,11.8-24.5
						c9.5-6.8,21.7-8.5,31.6-8.5c8.7,0,26.8,1.4,37.1,13.4c7,8.5,7.2,20.8,7.2,25.6l0.2,41.9c0,8.9,0.6,17.7,2.5,26.4L226.4,181.9
						L226.4,181.9z M188.8,149.7c0,7,4.7,14.8,14.8,14.8c5.6,0,10.1-2.7,13-6c5.4-6.6,5.8-14.6,5.8-25.8
						C202.8,131.2,188.8,137.4,188.8,149.7z"/>
				</g>
				<g>
					<path class="st7" d="M270.2,96.3c0-0.4,0-11.8-0.6-19h29.3l0.8,15.7c2.9-4.7,11.1-18.1,33.8-18.1c20.4,0,29.1,12.4,31.8,19.6
						c2.3,6.4,2.9,11.8,2.9,31.1v56.3h-31.1v-64.8c0-4.3,0-8-1.7-11.3c-2.3-4.5-7-8.9-14.8-8.9c-6.6,0-12.6,3.1-15.9,8
						c-1.9,2.7-3.7,7.8-3.7,15.9v61h-30.7L270.2,96.3L270.2,96.3z"/>
				</g>
			</g>
			<g>
				<g>
					<path class="st7" d="M401.5,59.6v18.8h-20v20.2h20v57.1c0,8.7,0,28,30.7,28c4.9,0,13.8-0.6,23.7-3.3v-20
						c-3.7,0.4-5.8,0.6-10.3,0.6c-13.6,0-13.6-6-13.8-15.5v-47h24.7V78.3h-24.7V51.2L401.5,59.6z"/>
				</g>
			</g>
			<g>
				<path class="st7" d="M0.2,77.6h30.5V182H0.2V77.6z"/>
			</g>
		</g>
	</g>
	<g>
		<g>
			<path class="st7" d="M474.9,77.6h30.5V182h-30.5V77.6z"/>
		</g>
	</g>
</g>
<g>
	<polygon class="st7" points="505.4,20.3 505.4,50.8 525.7,50.8 525.7,0 474.9,0 474.9,20.3 	"/>
	<rect x="474.9" y="30.5" class="st7" width="20.3" height="20.3"/>
</g>
<rect y="19.9" class="st7" width="30.5" height="30.5"/>
</svg>
