<svg id="Layer_1" data-name="Layer 1" xmlns="http://www.w3.org/2000/svg" viewBox="0 0 600 600"><defs><style>.cls-1{opacity:0.25;}.cls-2{fill:#fff;fill-rule:evenodd;}</style></defs><title>linkedin-logo</title><g class="cls-1"><path class="cls-2" d="M165,541.4V215.64H56.73V541.4ZM110.86,171.18c37.75,0,61.26-25,61.26-56.29-.71-32-23.51-56.29-60.54-56.29S50.32,82.93,50.32,114.88c0,31.26,23.5,56.29,59.83,56.29Z"/><path class="cls-2" d="M224.91,541.4H333.19V359.48c0-9.73.71-19.47,3.57-26.41,7.82-19.46,25.64-39.61,55.55-39.61,39.19,0,54.85,29.88,54.85,73.67V541.4H555.43V354.61C555.43,254.55,502,208,430.77,208c-58.41,0-84.06,32.66-98.3,54.89h.72V215.64H224.91c1.42,30.56,0,325.76,0,325.76Z"/></g></svg>