<svg id="Layer_1" data-name="Layer 1" xmlns="http://www.w3.org/2000/svg" viewBox="0 0 600 600"><defs><style>.cls-1{fill:#fff;opacity:0.25;}</style></defs><title>twitter-logo</title><path class="cls-1" d="M591.26,124.51a236,236,0,0,1-67.81,18.59,118.43,118.43,0,0,0,51.91-65.32,236.38,236.38,0,0,1-75,28.65,118.19,118.19,0,0,0-201.2,107.7A335.21,335.21,0,0,1,55.81,90.76,118.2,118.2,0,0,0,92.35,248.4a117.61,117.61,0,0,1-53.48-14.77c0,.49,0,1,0,1.49a118.15,118.15,0,0,0,94.72,115.78,118.32,118.32,0,0,1-53.32,2,118.19,118.19,0,0,0,110.3,82A236.9,236.9,0,0,1,43.91,485.46a239.58,239.58,0,0,1-28.17-1.65,334.2,334.2,0,0,0,181,53.05c217.18,0,335.95-179.92,335.95-336q0-7.68-.34-15.28A239.91,239.91,0,0,0,591.26,124.51Z"/></svg>