<svg id="Layer_1" data-name="Layer 1" xmlns="http://www.w3.org/2000/svg" viewBox="0 0 600 600"><defs><style>.cls-1{opacity:0.25;}.cls-2{fill:#fff;}</style></defs><title>Untitled-2</title><g id="Lozenge" class="cls-1"><path class="cls-2" d="M594,180.61s-5.83-41.15-23.74-59.27c-22.71-23.78-48.16-23.9-59.83-25.29-83.56-6-208.9-6-208.9-6h-.26s-125.34,0-208.9,6c-11.67,1.39-37.11,1.51-59.83,25.29-17.9,18.12-23.73,59.27-23.73,59.27s-6,48.32-6,96.64v45.3c0,48.32,6,96.64,6,96.64s5.83,41.15,23.73,59.27c22.71,23.78,52.55,23,65.84,25.52,47.77,4.58,203,6,203,6s125.47-.19,209-6.23c11.67-1.39,37.12-1.51,59.83-25.29C588.2,460.34,594,419.2,594,419.2s6-48.32,6-96.64v-45.3C600,228.93,594,180.61,594,180.61ZM239.8,377.45l0-167.77,161.34,84.18Z"/></g></svg>